<svg width="15" height="15" viewBox="0 0 15 15" fill="none" xmlns="http://www.w3.org/2000/svg">
<g clip-path="url(#clip0_2082_10610)">
<path fill-rule="evenodd" clip-rule="evenodd" d="M7.9382 8.11235C7.70625 8.57559 7.3085 8.87382 6.87812 8.97441C6.81285 8.97441 6.71319 9.00706 6.61354 9.00706C5.88594 9.00706 5.45555 8.44412 5.45555 7.61647C5.45555 6.55588 6.08437 6.06 6.87812 5.82706C7.3085 5.72823 7.80591 5.69471 8.30244 5.69471V6.09265C8.30244 6.85412 8.33508 7.44971 7.9382 8.11235ZM8.30244 4.17265C7.87206 4.20529 7.37465 4.23794 6.87812 4.30324C6.117 4.40382 5.35589 4.53618 4.72795 4.83441C3.50294 5.33118 2.6748 6.39088 2.6748 7.94647C2.6748 9.90176 3.93245 10.8944 5.52258 10.8944C6.05174 10.8944 6.48213 10.8274 6.87812 10.7294C7.5087 10.53 8.03698 10.1656 8.6658 9.50294C9.03004 9.99971 9.13058 10.2326 9.75852 10.7621C9.92433 10.8274 10.0901 10.8274 10.2215 10.7294C10.6193 10.3976 11.3151 9.80118 11.6785 9.47029C11.8443 9.33794 11.8117 9.13853 11.7111 8.97441C11.3478 8.51029 10.9827 8.11235 10.9827 7.21853V4.23794C10.9827 2.97971 11.0832 1.82029 10.1563 0.96C9.39516 0.265588 8.20279 0 7.27587 0H6.87812C5.19097 0.0979412 3.40417 0.826764 3.00553 2.91353C2.93939 3.17912 3.1387 3.27794 3.27099 3.31059L5.12483 3.54265C5.32326 3.50912 5.42292 3.34324 5.45555 3.17912C5.62047 2.45029 6.21666 2.08588 6.87812 2.01882H7.01129C7.40904 2.01882 7.83943 2.18471 8.0705 2.51647C8.33508 2.91353 8.30244 3.44382 8.30244 3.90794V4.17265Z" fill="#343B45"/>
<path fill-rule="evenodd" clip-rule="evenodd" d="M14.9982 11.2327V11.2318C14.9912 11.0756 14.9585 10.9565 14.8933 10.8577L14.8862 10.848L14.8783 10.8383C14.8121 10.7659 14.7486 10.7386 14.6799 10.7086C14.4744 10.6292 14.1754 10.5868 13.8156 10.5859C13.5572 10.5859 13.2723 10.6106 12.9857 10.6733L12.9848 10.6539L12.6964 10.7501L12.6911 10.7527L12.5279 10.8056V10.8127C12.3366 10.8921 12.1628 10.9909 12.0014 11.1083C11.9009 11.1833 11.818 11.283 11.8136 11.4356C11.8109 11.5186 11.8532 11.6139 11.9229 11.6703C11.9926 11.7268 12.0737 11.7462 12.1452 11.7462C12.1619 11.7462 12.1778 11.7453 12.1919 11.7427L12.206 11.7418L12.2166 11.7401C12.3577 11.7101 12.5632 11.6898 12.804 11.6562C13.0103 11.6333 13.2291 11.6165 13.4187 11.6165C13.5527 11.6156 13.6736 11.6253 13.7565 11.643C13.7979 11.6518 13.8288 11.6624 13.8455 11.6712C13.8517 11.673 13.8561 11.6756 13.8588 11.6774C13.8623 11.6889 13.8676 11.7189 13.8667 11.7603C13.8685 11.9192 13.8014 12.2139 13.7088 12.5015C13.6189 12.7892 13.5095 13.0777 13.4372 13.2692C13.4196 13.3133 13.4081 13.3618 13.4081 13.4148C13.4063 13.4915 13.4381 13.5851 13.5051 13.6468C13.5704 13.7086 13.655 13.7333 13.7256 13.7333H13.7291C13.835 13.7324 13.9249 13.6901 14.0025 13.6292C14.7345 12.9709 14.9894 11.9192 15 11.3271L14.9982 11.2327ZM12.8278 12.1451C12.7528 12.1442 12.6761 12.1618 12.6047 12.1953C12.5244 12.2271 12.4424 12.2642 12.3648 12.2968L12.251 12.3445L12.1028 12.4036V12.4053C10.4933 13.0583 8.80263 13.4412 7.23807 13.4748C7.18075 13.4765 7.12254 13.4765 7.06698 13.4765C4.60637 13.4783 2.59908 12.3365 0.574155 11.2115C0.5036 11.1745 0.430399 11.1551 0.359844 11.1551C0.269005 11.1551 0.17552 11.1895 0.10761 11.253C0.0397013 11.3174 -0.000867847 11.4101 1.40905e-05 11.5045C-0.000867847 11.6271 0.0652774 11.7401 0.157881 11.8133C2.05846 13.4642 4.14159 14.9977 6.9435 14.9995C6.99818 14.9995 7.05375 14.9977 7.10931 14.9968C8.8917 14.9571 10.9069 14.3545 12.4715 13.3715L12.4812 13.3653C12.6858 13.2427 12.8904 13.1033 13.0836 12.9489C13.2035 12.8598 13.2864 12.7203 13.2864 12.5756C13.2811 12.3189 13.0633 12.1451 12.8278 12.1451Z" fill="#FF9A00"/>
</g>
<defs>
<clipPath id="clip0_2082_10610">
<rect width="15" height="15" fill="white"/>
</clipPath>
</defs>
</svg>
