<svg width="25" height="25" viewBox="0 0 25 25" fill="none" xmlns="http://www.w3.org/2000/svg">
<g clip-path="url(#clip0_2086_10667)">
<path d="M22.9228 4.15625H2.0821C0.935223 4.15625 0 5.09147 0 6.24328V18.7605C0 19.9074 0.935223 20.8426 2.0821 20.8426H22.9179C24.0648 20.8426 25 19.9074 25 18.7605V6.24328C25.0049 5.09147 24.0697 4.15625 22.9228 4.15625ZM22.3617 5.54924L12.4975 13.8727L2.64324 5.54924H22.3617ZM1.38807 18.5931V6.30726L8.71234 12.4896L1.38807 18.5931ZM2.53003 19.4496L9.79031 13.4002L12.0496 15.31C12.1776 15.4183 12.34 15.4725 12.4975 15.4725C12.655 15.4725 12.8175 15.4183 12.9455 15.31L15.2097 13.4002L22.4798 19.4496H2.53003ZM23.6169 18.5882L16.2877 12.4896L23.6169 6.30234V18.5882Z" fill="black"/>
</g>
<defs>
<clipPath id="clip0_2086_10667">
<rect width="25" height="25" fill="white"/>
</clipPath>
</defs>
</svg>
