<svg width="17" height="17" viewBox="0 0 17 17" fill="none" xmlns="http://www.w3.org/2000/svg">
<path d="M15.9904 3.60268C15.9841 3.58148 15.9777 3.56027 15.9694 3.53906C10.9876 3.54118 6.0079 3.53906 1.02821 3.54118C1.01559 3.55603 1.00718 3.57087 1.00507 3.58996C1.00507 7.48573 1.00507 11.3794 1.00293 15.2751C1.03447 15.483 1.14803 15.6717 1.29948 15.8138C1.30579 15.8159 1.32051 15.818 1.32682 15.8201C1.40463 15.9028 1.51608 15.9432 1.62123 15.9813C1.69903 15.9771 1.77474 16.011 1.85255 16.0025H8.0351C8.09398 16.0004 8.15492 16.011 8.2117 15.9877C8.21385 15.9793 8.21591 15.9644 8.21801 15.9559C8.22016 15.9453 8.22222 15.922 8.22434 15.9093C8.35685 15.1628 8.48508 14.4142 8.62602 13.6677L8.63864 13.5722C8.06667 13.5701 7.49255 13.5722 6.92058 13.5701C6.78177 13.5659 6.63881 13.5701 6.5 13.5531C6.26239 13.5425 6.02266 13.551 5.78503 13.5277C5.49062 13.5277 5.19832 13.5001 4.90391 13.5001C4.67259 13.4767 4.43917 13.4853 4.20574 13.4746C4.05438 13.4556 3.89872 13.464 3.74525 13.4577C3.495 13.4301 3.24055 13.4492 2.99031 13.4216C2.72534 13.4238 2.46037 13.4004 2.19541 13.394C2.19751 13.3919 2.19961 13.3834 2.19961 13.3813C2.28793 13.3834 2.37415 13.3771 2.46247 13.375C2.65805 13.3495 2.85572 13.3665 3.05129 13.3389C3.25527 13.3389 3.45715 13.3114 3.66113 13.3114C3.84198 13.2859 4.02494 13.3007 4.20574 13.2753C4.41818 13.2753 4.62633 13.2477 4.83876 13.2456C5.0133 13.2223 5.18995 13.235 5.36449 13.2117C5.56847 13.2138 5.77035 13.182 5.97433 13.1841C6.17411 13.1607 6.37805 13.1671 6.57783 13.1459C6.55894 13.0675 6.54418 12.989 6.5274 12.9105C6.51268 12.8617 6.4538 12.8723 6.41594 12.8659C5.95961 12.8002 5.50538 12.7345 5.05116 12.6709C5.0806 12.6475 5.12055 12.6581 5.1542 12.6539C5.50749 12.6263 5.85867 12.5945 6.21196 12.569C6.29187 12.5648 6.36968 12.55 6.44959 12.5478C6.41384 12.4376 6.39281 12.3167 6.34445 12.2149C5.58954 12.0983 4.83456 11.9943 4.08172 11.8692C4.27729 11.8374 4.47496 11.8226 4.67053 11.8014L4.68735 11.795C5.31192 11.7292 5.93858 11.655 6.56315 11.5935C7.3559 11.5893 8.14664 11.5913 8.93944 11.5935C8.96463 11.5893 9.00883 11.6019 9.01304 11.5659C9.07823 11.2224 9.14131 10.8788 9.20646 10.5352C9.29689 10.0581 9.43989 9.5873 9.66069 9.15255C10.0077 8.45271 10.5565 7.85891 11.2252 7.46448C11.8498 7.09547 12.5732 6.91733 13.2924 6.8834C13.5258 6.86219 13.7614 6.86855 13.9927 6.89824C14.1441 6.9343 14.2997 6.97671 14.4196 7.08063C14.5184 7.16121 14.5773 7.27998 14.6215 7.39874C14.7182 7.68079 14.7729 7.97345 14.8191 8.26823C14.8212 8.38699 14.8423 8.5206 14.7792 8.62876C14.7203 8.73479 14.6026 8.78569 14.4911 8.8175C14.0852 8.92354 13.6604 8.82384 13.2546 8.92354C12.9202 8.99564 12.609 9.18224 12.3966 9.4516C12.1463 9.76544 12.0138 10.1556 11.9402 10.5459C11.8835 10.8937 11.812 11.2415 11.7552 11.5914C12.1547 11.5935 12.5564 11.5893 12.9581 11.5935C13.1179 11.5935 13.2819 11.6826 13.3471 11.8353C13.4312 12.0304 13.4123 12.251 13.3849 12.4567C13.3513 12.6878 13.2966 12.9168 13.1936 13.1289C13.1073 13.3092 12.9644 13.4746 12.7688 13.5382C12.6679 13.5785 12.5585 13.57 12.4513 13.57C12.0979 13.57 11.7446 13.5743 11.3914 13.57C11.3346 13.8309 11.2968 14.0981 11.2463 14.3632C11.1538 14.8785 11.0634 15.396 10.9708 15.9134C10.9687 15.9304 10.9666 15.9665 10.9666 15.9855C11.1327 15.994 11.2989 15.9855 11.465 15.9898C12.6973 15.9898 13.9317 15.9876 15.1661 15.9898C15.2986 15.994 15.4332 15.9622 15.5488 15.8965C15.6182 15.871 15.6603 15.8095 15.7213 15.7756C15.7802 15.7417 15.797 15.6717 15.8474 15.6271C15.9021 15.5296 15.9589 15.4278 15.9631 15.3133C15.9694 15.3133 15.9862 15.3111 15.9947 15.309C15.9883 11.4069 15.9946 7.50481 15.9904 3.60268Z" fill="url(#paint0_linear_2083_10630)" stroke="#FCD109" stroke-width="0.0280253"/>
<path d="M2.96461 1.03269C3.14336 0.975426 3.33052 1.0136 3.51352 1.00087C6.94757 1.003 10.3816 1.00087 13.8156 1.00087C14.0196 0.992392 14.1984 1.10903 14.3876 1.16841C14.539 1.22991 14.6967 1.27869 14.8482 1.34443C14.8797 1.35716 14.9028 1.38473 14.9259 1.40805C14.9238 1.68799 14.9259 1.97005 14.9259 2.2521C14.9281 2.32633 14.9154 2.40267 14.9406 2.47478C14.9848 2.48114 15.0079 2.51507 15.0374 2.54264C15.1762 2.60626 15.2939 2.71018 15.4201 2.79501C15.6094 2.93073 15.8113 3.04949 15.9963 3.18946C16.0047 3.2446 15.9984 3.30186 15.9816 3.35276C15.9627 3.41214 15.9753 3.47576 15.969 3.53514C10.9872 3.53726 6.00748 3.53514 1.02779 3.53726C1.01728 3.46728 1.0362 3.39729 1.00676 3.33155C1.00256 3.27641 0.983632 3.20431 1.0362 3.16613C1.2465 3.01768 1.4694 2.88408 1.67545 2.72714C1.80377 2.64444 1.9278 2.55961 2.05187 2.47478C2.0771 2.43236 2.06869 2.37934 2.06869 2.33269C2.06869 2.02518 2.06869 1.71768 2.07079 1.41017C2.14229 1.31686 2.26641 1.30626 2.3652 1.2596C2.56506 1.18326 2.76694 1.10903 2.96461 1.03269ZM2.97723 1.06874C2.70806 1.17265 2.43678 1.27233 2.16761 1.37624C2.13186 1.38261 2.11289 1.41442 2.09401 1.44199C2.09611 1.45895 2.09822 1.48864 2.09822 1.50561C2.09607 1.76009 2.09822 2.01458 2.09607 2.26907C2.09822 2.33269 2.08976 2.39631 2.11289 2.45357C2.08556 2.48114 2.05616 2.50871 2.02247 2.52992C1.71755 2.72926 1.42314 2.94558 1.11822 3.14281C1.06565 3.17462 1.00676 3.21703 1.02359 3.28701C1.01307 3.32519 1.032 3.357 1.07195 3.34639C1.73227 3.34215 2.39048 3.35064 3.05083 3.34003C4.03289 3.34003 5.01285 3.34215 5.99491 3.34003L6.00963 3.33367C6.05379 3.34427 6.09791 3.34003 6.14417 3.34003C7.92323 3.34003 9.70229 3.34215 11.4834 3.34003C12.0428 3.34215 12.6043 3.34003 13.1658 3.34003C14.091 3.34003 15.0184 3.34852 15.9437 3.34427C15.9711 3.33791 15.9795 3.31883 15.969 3.28489C15.9668 3.25096 15.9795 3.20431 15.9437 3.1831C15.7965 3.11312 15.6703 3.00496 15.5295 2.92013C15.479 2.87771 15.4138 2.85439 15.3759 2.79713C15.2308 2.71442 15.0963 2.61262 14.9532 2.52143C14.9259 2.50447 14.9048 2.4769 14.8818 2.45357C14.8944 2.40903 14.8986 2.36026 14.8986 2.3136C14.8965 2.04427 14.8986 1.77494 14.8965 1.50561C14.9028 1.46319 14.9007 1.41442 14.8628 1.38685C14.6104 1.29566 14.3602 1.1981 14.1099 1.10479C14.0321 1.06662 13.9459 1.04541 13.8618 1.03269H3.11384C3.06766 1.03481 3.0235 1.05813 2.97723 1.06874Z" fill="#F8F3B5" stroke="#F8F3B5" stroke-width="0.0280253"/>
<path d="M2.09785 1.50781C2.2829 1.58628 2.48054 1.63081 2.66774 1.70716C2.76868 1.74745 2.80022 1.85773 2.84438 1.9468C2.80018 1.99134 2.7476 2.02739 2.69503 2.06132C2.50156 2.19281 2.30389 2.32005 2.11253 2.45578C2.08939 2.39852 2.09785 2.33489 2.0957 2.27127C2.09785 2.01679 2.09575 1.7623 2.09785 1.50781ZM14.3262 1.70716C14.5134 1.63294 14.709 1.58204 14.8962 1.50781C14.8983 1.77714 14.8962 2.04648 14.8983 2.31581C14.8983 2.36246 14.894 2.41124 14.8814 2.45578C14.7174 2.34126 14.5513 2.2331 14.3872 2.1207C14.3073 2.06132 14.219 2.01679 14.1475 1.94468C14.1917 1.85561 14.2253 1.74745 14.3262 1.70716Z" fill="#F7B402" stroke="#F7B402" stroke-width="0.0280253"/>
<path d="M5.30714 1.7905C5.53846 1.73536 5.79712 1.94319 5.7782 2.18707C5.7803 2.42671 5.53001 2.62182 5.30083 2.56668C5.20831 2.53487 5.11994 2.4861 5.06321 2.40339C4.9896 2.29099 4.97274 2.14042 5.03166 2.01742C5.07372 1.89865 5.18728 1.81807 5.30714 1.7905ZM11.3067 1.9241C11.4035 1.81595 11.557 1.75445 11.7 1.79262C11.8072 1.82443 11.9124 1.89441 11.9586 2.00045C12.0512 2.18283 11.9797 2.42884 11.7988 2.52427C11.639 2.61334 11.4371 2.57092 11.3152 2.44156C11.1911 2.29947 11.1826 2.06619 11.3067 1.9241Z" fill="#BDA727" stroke="#BDA727" stroke-width="0.0280253"/>
<path d="M2.69525 2.06195C2.74782 2.02802 2.80039 1.99197 2.8446 1.94743L2.85928 1.96228C2.874 2.07256 2.86348 2.18495 2.86769 2.29523C2.86138 2.62606 2.874 2.95902 2.85928 3.28985C2.24733 3.28985 1.63542 3.28561 1.02344 3.28985C1.00661 3.21987 1.06549 3.17745 1.11807 3.14564C1.42299 2.94841 1.7174 2.7321 2.02232 2.53275C2.05601 2.51155 2.0854 2.48398 2.11274 2.45641C2.30411 2.32068 2.50178 2.19344 2.69525 2.06195ZM14.1266 2.01954C14.1266 1.99197 14.133 1.96864 14.1477 1.94531C14.2191 2.01742 14.3075 2.06195 14.3874 2.12133C14.5514 2.23373 14.7175 2.34189 14.8816 2.45641C14.9047 2.47973 14.9257 2.5073 14.953 2.52427C15.0961 2.61546 15.2306 2.71726 15.3757 2.79996C15.4136 2.85722 15.4788 2.88055 15.5293 2.92297C15.6702 3.00779 15.7963 3.11595 15.9435 3.18594C15.9793 3.20714 15.9667 3.2538 15.9688 3.28773C15.3568 3.28985 14.7469 3.28561 14.135 3.28985C14.1245 3.20502 14.1308 3.12019 14.1287 3.03748C14.1288 2.69817 14.1246 2.35885 14.1266 2.01954Z" fill="#F7E62D" stroke="#F7E62D" stroke-width="0.0280253"/>
<path d="M15.9688 3.28346C15.3568 3.28558 14.747 3.28134 14.1351 3.28558C14.1246 3.20075 14.1309 3.11592 14.1288 3.03321C14.1288 2.6939 14.1246 2.35458 14.1266 2.01527C14.1266 1.9877 14.133 1.96437 14.1477 1.94104C14.1919 1.85197 14.2255 1.74381 14.3264 1.70352C14.5136 1.62929 14.7091 1.5784 14.8963 1.50417C14.9027 1.46176 14.9006 1.41298 14.8627 1.38541C14.6103 1.29422 14.3601 1.19667 14.1098 1.10335C14.032 1.06518 13.9458 1.04397 13.8617 1.03125H3.11371C3.06744 1.03337 3.02328 1.0567 2.97702 1.0673C2.70785 1.17122 2.43657 1.27089 2.1674 1.37481C2.13165 1.38117 2.11268 1.41298 2.0938 1.44055C2.0959 1.45752 2.098 1.48721 2.098 1.50417C2.28306 1.58264 2.48069 1.62717 2.66789 1.70352C2.76883 1.74381 2.80037 1.85409 2.84454 1.94316L2.85921 1.95801C2.87393 2.06828 2.86342 2.18068 2.86763 2.29096C2.86132 2.62179 2.87393 2.95475 2.85921 3.28558C2.24727 3.28558 1.63536 3.28134 1.02337 3.28558C1.01286 3.32375 1.03179 3.35556 1.07174 3.34496C1.73205 3.34072 2.39027 3.3492 3.05062 3.3386C4.03268 3.3386 5.01263 3.34072 5.99469 3.3386L6.00941 3.33223C6.05357 3.34284 6.09769 3.3386 6.14396 3.3386C7.92302 3.3386 9.70208 3.34072 11.4832 3.3386C12.0426 3.34072 12.6041 3.3386 13.1656 3.3386C14.0908 3.3386 15.0182 3.34708 15.9435 3.34284C15.9709 3.33648 15.9793 3.31739 15.9688 3.28346ZM5.0316 2.01739C5.07366 1.89863 5.18718 1.81804 5.30708 1.79047C5.5384 1.73533 5.79706 1.94316 5.77814 2.18704C5.78024 2.42669 5.52995 2.62179 5.30078 2.56665C5.20825 2.53484 5.11988 2.48607 5.06315 2.40336C4.98954 2.29096 4.97272 2.14039 5.0316 2.01739ZM11.3067 1.92407C11.4034 1.81592 11.5569 1.75442 11.6999 1.79259C11.8072 1.8244 11.9123 1.89438 11.9586 2.00042C12.0511 2.1828 11.9796 2.42881 11.7988 2.52424C11.6389 2.61331 11.4371 2.57089 11.3151 2.44153C11.191 2.29944 11.1826 2.06616 11.3067 1.92407Z" fill="url(#paint1_radial_2083_10630)" stroke="#FCD109" stroke-width="0.0280253"/>
<path d="M11.8429 4.21609C11.8723 4.22246 11.6896 4.0391 11.7254 4.03062C11.759 4.03486 11.8866 3.93499 12.0408 4.01647C12.195 4.09795 12.1568 4.28862 12.1393 4.35933C12.1184 4.44348 12.0653 4.49718 12.0233 4.53959C12.0001 4.55868 11.9483 4.58837 11.9167 4.58625C11.9357 4.48233 11.8747 4.46536 11.8705 4.35933L11.8429 4.21609Z" fill="url(#paint2_linear_2083_10630)" stroke="#FCD109" stroke-width="0.0280253"/>
<path d="M5.12009 4.32809C5.11588 4.43413 5.05486 4.45109 5.07383 4.55501C5.04228 4.55713 4.99038 4.52744 4.96727 4.50835C4.92521 4.46594 4.87216 4.41224 4.8513 4.32809C4.8338 4.25741 4.79555 4.06673 4.94975 3.98523C5.10396 3.90373 5.23154 4.0036 5.26519 3.99938C5.30094 4.00786 5.11828 4.19122 5.14768 4.18486L5.12009 4.32809Z" fill="url(#paint3_linear_2083_10630)" stroke="#FCD109" stroke-width="0.0280253"/>
<path d="M11.5671 5.57457C11.5988 5.54687 11.6198 5.54688 11.6618 5.54688C11.4095 6.09826 11.1151 6.64965 10.6724 7.07895C10.6251 7.12157 10.5751 7.16108 10.5227 7.19724C10.4721 7.23463 10.4224 7.26971 10.373 7.30544C10.3246 7.33931 10.2766 7.37337 10.2297 7.40889C10.1099 7.47463 10.0047 7.56585 9.87225 7.60612C9.63042 7.72276 9.3697 7.80122 9.10683 7.85636C9.00379 7.87335 8.89865 7.89878 8.7935 7.9009C8.66312 7.93909 8.52433 7.9115 8.39184 7.91999C8.31824 7.93271 8.25301 7.89029 8.18155 7.89878C8.11952 7.88993 8.05763 7.87933 7.99612 7.86695C7.9337 7.85408 7.87169 7.83924 7.8102 7.82243C6.84619 7.51915 5.89988 6.77689 5.62418 5.77305C5.61176 5.70545 5.6055 5.63684 5.60547 5.56808C5.63489 5.62746 5.6654 5.68642 5.69697 5.74482C6.08914 6.60724 6.86721 7.28587 7.78644 7.4905C7.86105 7.52481 7.9418 7.51279 8.01332 7.54248C8.07851 7.54248 8.1416 7.54035 8.20469 7.56156C8.42129 7.56578 8.63789 7.56368 8.85448 7.56368C8.88388 7.5658 8.91122 7.55096 8.9407 7.5446C9.30169 7.53225 9.6554 7.43296 9.98473 7.28239C10.0506 7.25228 10.1155 7.2201 10.1793 7.18617C10.2351 7.15654 10.2897 7.12443 10.3427 7.08993C10.3947 7.05608 10.4454 7.02003 10.4944 6.98186C10.8838 6.67086 11.2202 6.26792 11.4487 5.80456C11.4922 5.72118 11.532 5.64396 11.5671 5.57457Z" fill="#BDA727" stroke="#BDA727" stroke-width="0.0280253"/>
<path d="M11.2246 7.46075C11.8492 7.09175 12.5727 6.91361 13.2918 6.87968C13.5253 6.85847 13.7608 6.86483 13.9921 6.89452C14.1435 6.93057 14.2991 6.97299 14.419 7.0769C14.358 7.08114 14.2991 7.05357 14.2382 7.04509C14.0657 7.01116 13.887 7.02388 13.7124 7.01964C13.2056 7.01964 12.6946 7.05994 12.2046 7.1999C11.9481 7.27837 11.6915 7.36956 11.4581 7.50529C11.0544 7.73008 10.6906 8.02699 10.3961 8.38327C9.87042 8.99194 9.56129 9.76386 9.41198 10.5507C9.34048 10.9726 9.25843 11.3925 9.19328 11.8167C9.08813 11.8273 8.98089 11.8209 8.87574 11.8209C8.4131 11.8188 7.95046 11.8167 7.48782 11.8125C7.38898 11.8167 7.29221 11.7934 7.19341 11.7997C6.35225 11.804 5.51109 11.7976 4.66992 11.7976L4.68675 11.7912C5.31131 11.7254 5.93798 11.6512 6.56254 11.5898C7.35529 11.5855 8.14603 11.5876 8.93883 11.5898C8.96402 11.5855 9.00822 11.5982 9.01243 11.5622C9.07762 11.2186 9.14071 10.8751 9.20586 10.5315C9.29632 10.0544 9.43932 9.58358 9.66013 9.14883C10.0071 8.44899 10.556 7.85519 11.2246 7.46075Z" fill="#0D69B3" stroke="#0D69B3" stroke-width="0.0280253"/>
<path d="M12.205 7.19589C12.695 7.05592 13.206 7.01562 13.7128 7.01562C13.8874 7.01987 14.0661 7.00714 14.2385 7.04107C14.2995 7.04956 14.3584 7.07713 14.4194 7.07288C14.5182 7.15347 14.5771 7.27223 14.6213 7.39099C14.7181 7.67305 14.7727 7.96571 14.8189 8.26049C14.8211 8.37925 14.8421 8.51286 14.779 8.62101C14.7201 8.72705 14.6024 8.77795 14.4909 8.80976C14.085 8.91579 13.6603 8.8161 13.2544 8.91579C12.9201 8.9879 12.6088 9.1745 12.3964 9.44385C12.1462 9.7577 12.0137 10.1479 11.9401 10.5381C11.8833 10.8859 11.8118 11.2337 11.755 11.5836C11.7298 11.6621 11.7151 11.747 11.7003 11.8297C12.0977 11.8361 12.4952 11.8297 12.8927 11.8339C13.0441 11.8297 13.1955 11.8381 13.3469 11.8275C13.431 12.0227 13.4121 12.2432 13.3848 12.4489C13.3511 12.6801 13.2964 12.9091 13.1934 13.1212C13.1071 13.3014 12.9642 13.4669 12.7686 13.5305C12.6677 13.5708 12.5583 13.5623 12.4511 13.5623C12.0977 13.5623 11.7445 13.5665 11.3912 13.5623C11.3344 13.8232 11.2966 14.0904 11.2461 14.3554C11.1536 14.8708 11.0632 15.3882 10.9706 15.9057C10.9685 15.9227 10.9664 15.9587 10.9664 15.9778V15.9799C10.0474 15.9799 9.13058 15.9821 8.21161 15.9799C8.21373 15.9715 8.21582 15.9566 8.21792 15.9481C8.22006 15.9375 8.22212 15.9142 8.22425 15.9015C8.22637 15.9185 8.22843 15.9503 8.23058 15.9651C8.28733 15.9715 8.3904 16.0011 8.40512 15.9185C8.54812 15.138 8.6806 14.3533 8.8278 13.5729C8.77105 13.5602 8.71214 13.5602 8.65326 13.5708C8.64489 13.6005 8.63644 13.6301 8.62592 13.6598L8.63854 13.5644C8.06659 13.5622 7.49246 13.5644 6.92051 13.5622C6.78167 13.5581 6.63872 13.5622 6.49993 13.5453C6.2623 13.5347 6.02256 13.5432 5.78494 13.5198C5.49053 13.5198 5.19822 13.4923 4.90382 13.4923C4.6725 13.4689 4.43907 13.4774 4.20565 13.4668C4.05428 13.4478 3.89863 13.4562 3.74516 13.4499C3.49491 13.4223 3.24046 13.4414 2.99021 13.4138C2.72525 13.4159 2.46028 13.3926 2.19531 13.3862C2.19742 13.3841 2.19952 13.3756 2.19952 13.3735C2.28784 13.3756 2.37406 13.3692 2.46238 13.3671C2.65795 13.3417 2.85563 13.3586 3.0512 13.3311C3.25518 13.3311 3.45706 13.3035 3.66104 13.3035C3.84189 13.2781 4.02484 13.2929 4.20565 13.2675C4.41809 13.2675 4.62623 13.2399 4.83867 13.2378C5.01321 13.2145 5.18985 13.2272 5.3644 13.2039C5.56838 13.206 5.77026 13.1742 5.97424 13.1763C6.17402 13.1529 6.37796 13.1593 6.57773 13.1381C6.55885 13.0596 6.54409 12.9812 6.52731 12.9027C6.51258 12.8539 6.4537 12.8645 6.41585 12.8581C5.95952 12.7923 5.50529 12.7266 5.05106 12.663C5.0805 12.6396 5.12046 12.6502 5.15411 12.6461C5.50739 12.6184 5.85858 12.5866 6.21187 12.5612C6.29178 12.557 6.36959 12.5421 6.4495 12.54C6.41375 12.4297 6.39272 12.3089 6.34435 12.207C5.58945 12.0904 4.83446 11.9865 4.08162 11.8614C4.27719 11.8296 4.47487 11.8147 4.67044 11.7935C5.5116 11.7935 6.35276 11.7999 7.19393 11.7956C7.29272 11.7893 7.3895 11.8126 7.48833 11.8084C7.95097 11.8126 8.41361 11.8148 8.87625 11.8168C8.9814 11.8168 9.08865 11.8232 9.19379 11.8126C9.25898 11.3885 9.341 10.9685 9.4125 10.5466C9.5618 9.75973 9.87093 8.98783 10.3967 8.37921C10.6911 8.0229 11.0549 7.726 11.4586 7.50121C11.6919 7.36554 11.9485 7.27435 12.205 7.19589Z" fill="#107BD4" stroke="#107BD4" stroke-width="0.0280253"/>
<path d="M11.7544 11.5859C12.154 11.5881 12.5557 11.5838 12.9573 11.5881C13.1171 11.5881 13.2811 11.6771 13.3463 11.8298C13.1949 11.8404 13.0435 11.832 12.8921 11.8362C12.4946 11.832 12.0971 11.8384 11.6997 11.832C11.7145 11.7493 11.7291 11.6644 11.7544 11.5859ZM8.65263 13.5731C8.71151 13.5625 8.77043 13.5625 8.82717 13.5752C8.67996 14.3556 8.54748 15.1403 8.40448 15.9208C8.38976 16.0034 8.2867 15.9738 8.22994 15.9674C8.2278 15.9526 8.22574 15.9208 8.22363 15.9038C8.35612 15.1573 8.48435 14.4087 8.62529 13.6622C8.6358 13.6324 8.64421 13.6028 8.65263 13.5731Z" fill="#0D69B3" stroke="#0D69B3" stroke-width="0.0280253"/>
<path d="M11.9388 4.27723C11.922 4.24542 11.9199 4.20725 11.9199 4.17119L11.903 4.17332C11.8778 4.08 11.8 3.99093 11.6991 3.98669C11.6234 3.98033 11.5287 3.98245 11.4846 4.05455C11.4005 4.16907 11.4404 4.3154 11.4362 4.44477C11.4362 4.45325 11.4383 4.4681 11.4383 4.47658C11.4383 4.56353 11.4278 4.64836 11.4131 4.73319C11.4005 4.75863 11.3942 4.7862 11.3942 4.81589C11.3585 5.01524 11.2869 5.21247 11.1902 5.39273C11.1713 5.41818 11.1566 5.44575 11.1503 5.47544C11.0872 5.58572 11.0115 5.68751 10.9337 5.78931C10.921 5.79991 10.9105 5.81263 10.9 5.82536C10.8453 5.89322 10.7865 5.95048 10.7255 6.00986C10.7108 6.01834 10.7002 6.02895 10.6876 6.03743C10.6161 6.10741 10.5362 6.17316 10.45 6.22618C10.4395 6.23254 10.4289 6.24102 10.4163 6.2495C9.87794 6.60791 9.22398 6.75636 8.58678 6.76272C8.04635 6.77968 7.50165 6.66304 7.01378 6.42764C7.00541 6.4234 6.98438 6.41492 6.97593 6.41068C6.89393 6.36614 6.80982 6.32797 6.73409 6.27283C6.71727 6.26435 6.70045 6.25374 6.68152 6.24526C6.60371 6.19861 6.53011 6.14771 6.46071 6.08833C6.43758 6.06712 6.41235 6.05016 6.38711 6.03107C6.31141 5.96957 6.2336 5.90383 6.16845 5.8296C6.15163 5.81051 6.13476 5.79355 6.11798 5.77658C5.88881 5.53694 5.71006 5.24428 5.61543 4.92617C5.52496 4.67381 5.53762 4.39811 5.52711 4.13302C5.45136 4.01638 5.29158 3.95064 5.16541 4.02274C5.11283 4.06092 5.10652 4.1309 5.06657 4.17968C5.00138 4.87952 5.29789 5.57723 5.77104 6.08197C5.77104 6.09893 5.77946 6.10954 5.79422 6.1159C5.87833 6.19436 5.96031 6.27495 6.04442 6.3513C6.05914 6.36614 6.07597 6.38099 6.09489 6.39371C6.17901 6.4637 6.26943 6.52732 6.35776 6.59306C6.37458 6.60578 6.3914 6.61639 6.41033 6.62699C6.52599 6.69486 6.6353 6.77544 6.75941 6.8221C6.76782 6.82846 6.78254 6.83906 6.79095 6.84331C7.19051 7.03629 7.6216 7.16778 8.06322 7.21019C8.11158 7.21019 8.15995 7.21443 8.20832 7.22504C8.41861 7.23776 8.6289 7.2314 8.83919 7.22716C9.48895 7.1699 10.1598 7.01084 10.7024 6.62487L10.7087 6.63335C10.7255 6.61851 10.7402 6.60578 10.757 6.59306C10.8433 6.52944 10.9274 6.46158 11.0115 6.39159C11.0304 6.37675 11.0514 6.35978 11.0704 6.34069C11.1629 6.2389 11.2702 6.14559 11.348 6.02895L11.3606 6.03531C11.3669 6.02471 11.3774 6.0035 11.3838 5.9929C11.4552 5.89534 11.5205 5.79355 11.5836 5.69175C11.5877 5.68539 11.5982 5.67479 11.6025 5.66843L11.5941 5.65994C11.6004 5.65146 11.6151 5.63449 11.6214 5.62601C11.7371 5.38849 11.8401 5.14036 11.8759 4.8774C11.8906 4.87103 11.899 4.85831 11.899 4.84346C11.9012 4.75863 11.9306 4.67805 11.9222 4.59322C11.9409 4.4893 11.943 4.38327 11.9388 4.27723Z" fill="white" stroke="white" stroke-width="0.0280253"/>
<mask id="mask0_2083_10630" style="mask-type:luminance" maskUnits="userSpaceOnUse" x="5" y="3" width="7" height="5">
<path d="M11.9388 4.27723C11.922 4.24542 11.9199 4.20725 11.9199 4.17119L11.903 4.17332C11.8778 4.08 11.8 3.99093 11.6991 3.98669C11.6234 3.98033 11.5287 3.98245 11.4846 4.05455C11.4005 4.16907 11.4404 4.3154 11.4362 4.44477C11.4362 4.45325 11.4383 4.4681 11.4383 4.47658C11.4383 4.56353 11.4278 4.64836 11.4131 4.73319C11.4005 4.75863 11.3942 4.7862 11.3942 4.81589C11.3585 5.01524 11.2869 5.21247 11.1902 5.39273C11.1713 5.41818 11.1566 5.44575 11.1503 5.47544C11.0872 5.58572 11.0115 5.68751 10.9337 5.78931C10.921 5.79991 10.9105 5.81263 10.9 5.82536C10.8453 5.89322 10.7865 5.95048 10.7255 6.00986C10.7108 6.01834 10.7002 6.02895 10.6876 6.03743C10.6161 6.10741 10.5362 6.17316 10.45 6.22618C10.4395 6.23254 10.4289 6.24102 10.4163 6.2495C9.87794 6.60791 9.22398 6.75636 8.58678 6.76272C8.04635 6.77968 7.50165 6.66304 7.01378 6.42764C7.00541 6.4234 6.98438 6.41492 6.97593 6.41068C6.89393 6.36614 6.80982 6.32797 6.73409 6.27283C6.71727 6.26435 6.70045 6.25374 6.68152 6.24526C6.60371 6.19861 6.53011 6.14771 6.46071 6.08833C6.43758 6.06712 6.41235 6.05016 6.38711 6.03107C6.31141 5.96957 6.2336 5.90383 6.16845 5.8296C6.15163 5.81051 6.13476 5.79355 6.11798 5.77658C5.88881 5.53694 5.71006 5.24428 5.61543 4.92617C5.52496 4.67381 5.53762 4.39811 5.52711 4.13302C5.45136 4.01638 5.29158 3.95064 5.16541 4.02274C5.11283 4.06092 5.10652 4.1309 5.06657 4.17968C5.00138 4.87952 5.29789 5.57723 5.77104 6.08197C5.77104 6.09893 5.77946 6.10954 5.79422 6.1159C5.87833 6.19436 5.96031 6.27495 6.04442 6.3513C6.05914 6.36614 6.07597 6.38099 6.09489 6.39371C6.17901 6.4637 6.26943 6.52732 6.35776 6.59306C6.37458 6.60578 6.3914 6.61639 6.41033 6.62699C6.52599 6.69486 6.6353 6.77544 6.75941 6.8221C6.76782 6.82846 6.78254 6.83906 6.79095 6.84331C7.19051 7.03629 7.6216 7.16778 8.06322 7.21019C8.11158 7.21019 8.15995 7.21443 8.20832 7.22504C8.41861 7.23776 8.6289 7.2314 8.83919 7.22716C9.48895 7.1699 10.1598 7.01084 10.7024 6.62487L10.7087 6.63335C10.7255 6.61851 10.7402 6.60578 10.757 6.59306C10.8433 6.52944 10.9274 6.46158 11.0115 6.39159C11.0304 6.37675 11.0514 6.35978 11.0704 6.34069C11.1629 6.2389 11.2702 6.14559 11.348 6.02895L11.3606 6.03531C11.3669 6.02471 11.3774 6.0035 11.3838 5.9929C11.4552 5.89534 11.5205 5.79355 11.5836 5.69175C11.5877 5.68539 11.5982 5.67479 11.6025 5.66843L11.5941 5.65994C11.6004 5.65146 11.6151 5.63449 11.6214 5.62601C11.7371 5.38849 11.8401 5.14036 11.8759 4.8774C11.8906 4.87103 11.899 4.85831 11.899 4.84346C11.9012 4.75863 11.9306 4.67805 11.9222 4.59322C11.9409 4.4893 11.943 4.38327 11.9388 4.27723V4.27723Z" fill="white"/>
</mask>
<g mask="url(#mask0_2083_10630)">
<path d="M4.90527 4.20909C5.07574 4.26302 5.46736 4.12734 5.5782 4.25151M5.00342 4.73219C5.16677 4.67487 5.51705 4.53914 5.66232 4.61909M5.17165 5.25531C5.25061 5.2811 5.40627 5.14119 5.48359 5.1002C5.59862 5.03918 5.71664 4.99242 5.84458 4.97255M5.424 5.8067C5.50544 5.68997 5.60293 5.59303 5.72059 5.51011C5.83722 5.42796 6.15627 5.20844 6.29319 5.28358M5.66232 6.20257C5.75476 6.12845 5.79241 5.99735 5.88948 5.91948C6.0069 5.82527 6.18681 5.80837 6.30722 5.75014M6.05836 6.49591C6.08601 6.29088 6.29246 6.04345 6.48946 6.06116M6.36328 6.78223C6.46738 6.77171 6.55545 6.53673 6.62583 6.4571C6.73131 6.33781 6.84058 6.30112 6.98011 6.25911M6.9661 7.03672C6.95937 6.88835 7.11139 6.46295 7.28856 6.48533M7.41474 7.1781C7.40736 7.00276 7.49726 6.47536 7.70915 6.45706M7.87738 7.46086C7.83719 7.21566 7.8398 6.86095 8.03156 6.68325M8.45219 7.51742C8.4308 7.31302 8.22941 6.89984 8.45219 6.73981M9.06901 7.37603C8.97287 7.26361 8.91697 6.82017 8.95684 6.6974M9.65783 7.27706C9.58368 7.14127 9.49178 7.01375 9.46369 6.85611C9.44691 6.76191 9.47633 6.62771 9.46154 6.55601M10.1485 7.06498C9.98767 6.95888 9.94302 6.56893 9.99429 6.4005M10.6252 6.85291C10.5108 6.6054 10.3888 6.4135 10.3868 6.13187M11.0878 6.4005C10.91 6.27989 10.6832 6.06065 10.7093 5.82084M11.5785 6.01877C11.3084 5.95841 10.9842 5.71468 10.8215 5.49565M11.8028 5.55221C11.6079 5.51007 10.9641 5.25675 11.0037 5.00082M12.0131 5.05738C11.7416 4.95701 11.3466 4.86677 11.1299 4.67565M12.1533 4.60495C11.9823 4.61971 11.7373 4.53621 11.5635 4.50597C11.3705 4.4724 11.1915 4.40681 11.0037 4.36458M11.985 4.16668C11.6552 4.18659 11.3457 4.07277 11.0457 3.96875" stroke="#D1D1D1" stroke-width="0.596284"/>
</g>
<defs>
<linearGradient id="paint0_linear_2083_10630" x1="8.49879" y1="3.53904" x2="8.49879" y2="16.0039" gradientUnits="userSpaceOnUse">
<stop stop-color="#F7E830"/>
<stop offset="1" stop-color="#FDCB06"/>
</linearGradient>
<radialGradient id="paint1_radial_2083_10630" cx="0" cy="0" r="1" gradientUnits="userSpaceOnUse" gradientTransform="translate(8.43379 9.21889) scale(10.0536 10.1388)">
<stop offset="0.596" stop-color="#F29405"/>
<stop offset="0.736" stop-color="#F7D01E"/>
<stop offset="1" stop-color="#FDCB06"/>
</radialGradient>
<linearGradient id="paint2_linear_2083_10630" x1="11.9377" y1="3.98421" x2="11.9413" y2="4.57448" gradientUnits="userSpaceOnUse">
<stop stop-color="#FADA1C"/>
<stop offset="1" stop-color="#FDCB06"/>
</linearGradient>
<linearGradient id="paint3_linear_2083_10630" x1="5.05278" y1="3.95298" x2="5.0492" y2="4.54324" gradientUnits="userSpaceOnUse">
<stop stop-color="#FADA1C"/>
<stop offset="1" stop-color="#FDCB06"/>
</linearGradient>
</defs>
</svg>
