<svg width="25" height="25" viewBox="0 0 25 25" fill="none" xmlns="http://www.w3.org/2000/svg">
<g clip-path="url(#clip0_2082_10622)">
<path fill-rule="evenodd" clip-rule="evenodd" d="M20.693 4.26104C11.0845 -5.06921 -3.98898 6.47304 2.54152 18.1723L0.905273 24.1463L7.01902 22.5433C18.7158 28.7275 29.9135 13.7403 20.693 4.26104Z" fill="#F1F1F1"/>
<path fill-rule="evenodd" clip-rule="evenodd" d="M12.5351 22.1827C10.6368 22.1895 8.79155 21.6195 7.20005 20.609L3.50105 21.5787L4.48855 17.9735C3.37905 16.3292 2.7533 14.4007 2.7618 12.4047C2.7443 3.76749 13.3681 -0.636256 19.4483 5.50099C25.5773 11.586 21.1748 22.2017 12.5351 22.1827Z" fill="#66E066"/>
<path fill-rule="evenodd" clip-rule="evenodd" d="M17.8963 14.8699C17.6026 14.7229 16.1581 14.0121 15.8888 13.9141C15.6196 13.8161 15.4236 13.7671 15.2278 14.0614C15.0318 14.3554 14.4693 15.0169 14.2978 15.2126C14.1266 15.4089 13.9551 15.4334 13.6613 15.2864C13.0266 15.3711 9.77031 12.6174 9.66431 11.7939C9.49306 11.5001 9.64606 11.3409 9.79331 11.1944C10.0491 10.9136 10.3728 10.5606 10.5276 10.1899C10.6256 9.99365 10.5766 9.82215 10.5031 9.67515C10.4296 9.52815 9.85856 8.07515 9.59731 7.4944C9.37731 7.00515 9.14556 6.9954 8.93631 6.98665C8.44056 6.9944 8.05681 6.86565 7.58981 7.3474C5.83881 9.03265 6.64181 11.4009 7.76106 12.8361C7.90781 13.0321 9.79356 16.0931 12.7798 17.2706C15.2616 18.2494 15.7666 18.0546 16.3053 18.0056C16.8441 17.9566 18.0436 17.2951 18.2883 16.6091C18.5331 15.9231 18.5331 15.3351 18.4598 15.2124C18.3861 15.0904 18.1901 15.0169 17.8963 14.8699Z" fill="#F1F1F1"/>
</g>
<defs>
<clipPath id="clip0_2082_10622">
<rect width="25" height="25" fill="white"/>
</clipPath>
</defs>
</svg>
